<svg width="219" height="48" fill="none" xmlns="http://www.w3.org/2000/svg"><g filter="url(#a)" fill="#fff"><path d="M10 11.71v21.06h7.7v-9.73c-.1-3.83.68-6.33 4.15-6.33 2.86 0 3.52 2.4 3.56 3.75-.04 1.16.05 4.07.69 6.42.79 2.95 3.85 5.9 6.61 6.43 2.77.53 7.31 1.34 10.87-1.79 3.55-3.12 3.45-4.46 3.45-7.23 0-2.76-.1-5.17 3.16-7.05 2.61-1.5 5.24-.14 6.22.72 3.07 3.75 1.39 6.78-.2 8.48-1.26 1.35-3.94 1.33-5.13 1.16 0 2.28-1.71 4.52-2.57 5.35.17.24 1.49.68 5.44.54 3.95-.15 6.58-1.9 7.4-2.77a4.55 4.55 0 0 0 3.95 2.59c.3.03 1.1.07 1.98 0a5.08 5.08 0 0 0 1.97-.63V27.6c-2.84 1.2-3.62-.75-3.65-1.88V11.44h-5.24v1.61a48.27 48.27 0 0 0-2.56-1.25c-4.45-1.25-8.8-1.34-13.83 1.7-5.04 3.03-4.44 9.19-4.34 9.9.1.72-.1 3.57-3.26 3.48-2.53-.07-3.23-1.81-3.26-2.68V18.31c-.99-5.7-4.15-6.96-8.6-7.22-3.55-.22-6.21 2.23-7.1 3.48V11.7H10ZM73.9 6v5.62h-3.76v5.18H74v9.1c0 2.57.86 4.22 1.29 4.73 2.29 3.5 8.46 2.83 11.25 2.05v-5l-.88.27c-3.17.57-4.15-1.3-4.25-2.32V16.8h5.53v-5.18H81.4V6h-7.5ZM98.68 32.68h-7.7v-19.1c.3.63 1.48 1.9 3.85 1.97 2.37.07 3.55-1.28 3.85-1.96v19.1Z"/><ellipse cx="94.85" cy="9.84" rx="4.35" ry="3.75"/><path d="M203.55 6.1h-7.5c.04 4.63.1 14.9.1 18.9 0 4 1.19 5.83 1.78 6.24 2.68 2.93 8.28 2.17 10.75 1.43v-5.08c-4.34 1.28-5.23-.95-5.13-2.23V6.09Z"/><path fill-rule="evenodd" clip-rule="evenodd" d="M188.78 11.5v13.89c-.04 1.22.65 3.39 3.65 2.24v5.1c-.3.22-1.28.64-2.86.64-1.98 0-3.95-.63-4.94-2.6-1.29 1.04-4.78 3.08-8.5 2.87-4.64-.27-8-1.08-10.96-4.67-2.96-3.58-2.77-8.15-1.38-11.56 1.38-3.4 6.62-6.54 11.46-6.54 3.87 0 7.14 1.37 8.3 2.06V11.5h5.23ZM118.84 26.9c.3 1.32 1.35 4.22 3.17 5.3a14.48 14.48 0 0 1-13.93-.82 10.33 10.33 0 0 1-5.14-9.77c.4-6.99 6.72-10.48 11.46-10.57 4.74-.1 8.7.63 12.54 4.84.63.8 1.9 3.15 1.98 6.1v2.14c.07.93.83 2.78 3.36 2.78 3.16 0 3.26-2.87 3.16-4.2V11.67h7.4v2.86c.73-1.28 3.3-3.8 7.81-3.58 5.63.27 7.7 4.48 7.8 7.7.08 2.59.04 10.52 0 14.17h-7.6V20.1c-.1-1.13-.95-3.4-3.56-3.4-3.26 0-4.05 2.95-4.05 4.84v3.58a11.01 11.01 0 0 1-7.8 8.43c-6.82 1.97-12.45-2.96-13.43-5.47-.2-.57-.6-2.03-.6-3.32v-3.22a5.1 5.1 0 0 0-5.23-4.84c-5.04-.18-5.73 3.94-5.83 4.92-.1 1-.04 5.3 4.45 6.01.88.06 2.94 0 4.05-.72Zm56.98.82c1.88.02 5.62-1.05 5.54-5.57-.04-1.83-1.23-5.46-5.73-5.39-1.82-.06-5.42.94-5.34 5.39.1 5.57 5.38 5.57 5.53 5.57Z"/></g><defs><filter id="a" x="0" y="0" width="218.68" height="48" filterUnits="userSpaceOnUse" color-interpolation-filters="sRGB"><feFlood flood-opacity="0" result="BackgroundImageFix"/><feColorMatrix in="SourceAlpha" values="0 0 0 0 0 0 0 0 0 0 0 0 0 0 0 0 0 0 127 0" result="hardAlpha"/><feOffset dy="4"/><feGaussianBlur stdDeviation="5"/><feComposite in2="hardAlpha" operator="out"/><feColorMatrix values="0 0 0 0 0 0 0 0 0 0 0 0 0 0 0 0 0 0 0.25 0"/><feBlend in2="BackgroundImageFix" result="effect1_dropShadow_3_1751"/><feBlend in="SourceGraphic" in2="effect1_dropShadow_3_1751" result="shape"/></filter></defs></svg>