<svg width="519" height="81" fill="none" xmlns="http://www.w3.org/2000/svg"><path fill-rule="evenodd" clip-rule="evenodd" d="M166.9 0v16.23h-9.8v14.94h10.06v26.27c0 7.42 2.24 12.2 3.36 13.66 5.98 10.1 22.1 8.15 29.4 5.92V62.59l-2.31.78c-8.26 1.65-10.84-3.78-11.1-6.7v-25.5h14.45V16.23H186.5V0h-19.6ZM0 16.49v60.79h20.12V49.2c-.26-11.08 1.77-18.29 10.84-18.29 7.48 0 9.2 6.96 9.28 10.82-.08 3.35.16 11.75 1.8 18.55 2.07 8.5 10.07 17 17.3 18.54 7.22 1.55 19.08 3.87 28.37-5.15 9.04-8.77 9.04-12.67 9.03-20.23V52.12c0-7.7-.01-14.4 8.25-19.66 6.82-4.33 13.68-.43 16.26 2.06 8 10.82 3.6 19.57-.52 24.47-3.3 3.91-10.32 3.86-13.41 3.35 0 6.6-4.48 13.05-6.71 15.45.43.69 3.87 1.96 14.19 1.55 10.32-.41 17.2-5.5 19.35-7.99 2.88 6.18 8.08 7.56 10.31 7.47a29 29 0 0 0 5.16 0c2.27-.2 4.39-1.29 5.16-1.8V62.34c-7.43 3.5-9.46-2.15-9.54-5.41V15.7h-13.68v4.64a121.36 121.36 0 0 0-6.7-3.6c-11.61-3.61-22.96-3.87-36.12 4.89C75.6 30.4 77.14 48.17 77.4 50.23c.26 2.06-.26 10.3-8.51 10.05-6.6-.21-8.43-5.24-8.51-7.73V35.54c-2.58-16.48-10.84-20.08-22.45-20.86-9.29-.62-16.25 6.44-18.57 10.05v-8.24H0Zm211.54 5.4v55.13h20.12V21.9c-.78 1.97-3.87 5.87-10.06 5.66-6.2-.2-9.29-3.86-10.06-5.66Zm10.12 0c6.27 0 11.35-4.84 11.35-10.8C233 5.1 227.93.26 221.66.26S210.3 5.11 210.3 11.08c0 5.97 5.09 10.82 11.36 10.82ZM505.6.28h-19.58c.09 13.39.26 43.04.26 54.58 0 11.53 3.1 16.82 4.64 18.02 7 8.44 21.64 6.26 28.08 4.12V62.3c-11.34 3.7-13.65-2.74-13.4-6.43V.28Zm-38.59 55.7v-40.1h-13.67V20c-3.01-1.99-11.56-5.95-21.67-5.95-12.65 0-26.32 9.05-29.94 18.88-3.6 9.83-4.12 23.03 3.62 33.38 7.74 10.35 16.51 12.67 28.64 13.45 9.7.62 18.83-5.26 22.19-8.28 2.58 5.7 7.74 7.5 12.9 7.5 4.13 0 6.7-1.2 7.48-1.8V62.43c-7.84 3.3-9.63-2.94-9.55-6.47ZM292.6 75.63c-4.75-3.1-7.48-11.47-8.26-15.26-2.89 2.07-8.25 2.24-10.58 2.07-11.72-2.07-11.87-14.5-11.6-17.34.25-2.84 2.06-14.74 15.22-14.23 10.52.42 13.5 9.49 13.67 13.97v9.32a36.5 36.5 0 0 0 1.55 9.57c2.58 7.24 17.29 21.47 35.1 15.78 14.23-4.55 19.51-18.1 20.38-24.32V44.84c0-5.43 2.06-13.97 10.57-13.97 6.82 0 9.04 6.56 9.3 9.83v36.74h19.86c.09-10.52.2-33.42 0-40.88-.26-9.3-5.68-21.47-20.38-22.25-11.77-.62-18.5 6.65-20.39 10.35v-8.28h-19.35v31.83c.26 3.88 0 12.16-8.25 12.16-6.61 0-8.6-5.35-8.78-8.02v-6.21c-.2-8.49-3.52-15.27-5.16-17.6-10.06-12.16-20.38-14.23-32.77-13.97A31.52 31.52 0 0 0 242.8 45.1c-.82 16.15 8.6 25.53 13.42 28.2 14.66 10.35 30.36 5.87 36.38 2.33Zm155.04-28.99c.21 13.06-9.55 16.16-14.45 16.07-.4 0-14.2 0-14.46-16.07-.2-12.85 9.2-15.72 13.94-15.55 11.77-.2 14.89 10.28 14.97 15.55Z" fill="#fff"/></svg>