<svg width="47" height="48" fill="none" xmlns="http://www.w3.org/2000/svg"><circle cx="23.3" cy="23.87" r="22.3" fill="#CD2D3C" stroke="#fff" stroke-width="2"/><path d="M9.8 12.14c-2.7 2.77-1.86 6.95-1.1 8.7 1.18 3.29 3.54 7.6 8.02 11.56 4.47 3.97 8.36 6.16 11.31 6.25 2.96.08 4.14-.5 6-2.2 1.48-1.35.9-2.7.42-3.2-.31-.37-1.45-1.6-3.55-3.55-2.62-2.45-4.81-.6-5.32-.25-.5.33-1.69.84-2.95.5-1.27-.33-3.72-2.61-5.5-4.8a3.94 3.94 0 0 1-.07-5c.5-.67 1.35-1.76 1-3.03-.33-1.27-1.68-3.3-4.13-5.57-1.96-1.83-3.57-.37-4.14.59ZM27.7 19.57c-1.22-1.49-3.38-2.08-4.31-2.2-.31 0-.93-.17-.93-.84 0-.68.67-.85 1.01-.85 1.44.17 4.05 1.19 5.66 2.96a9.44 9.44 0 0 1 2.28 5.15c.07.93-.34 1.27-.68 1.27s-.84-.09-1.01-1.27c-.28-1.94-.5-2.36-2.03-4.22Z" fill="#fff"/><path d="M21.95 11.55c0 .6.56.76.85.76 2.61.76 4.9.67 8.44 4.3a13.07 13.07 0 0 1 3.55 8.36c.08.17 0 .85.76.93.6.07.81-.42.84-.67.08-2.03-.68-5.75-4.05-9.88-3.38-4.14-9.3-4.56-9.46-4.56-.17 0-.93 0-.93.76Z" fill="#fff"/></svg>