<svg width="264" height="1715" fill="none" xmlns="http://www.w3.org/2000/svg"><path fill-rule="evenodd" clip-rule="evenodd" d="M.84 1163.47h52.7v32.39h48.52v-33.25h85.32c24.09 0 39.6-7.38 44.33-11.08 32.8-19.77 26.5-73.02 19.24-97.18h-46.84l2.5 7.68c5.36 27.27-12.26 35.8-21.74 36.65h-82.81v-47.74H53.54v47.74H.84v64.79ZM54.38 1715h197.4v-66.49h-91.17c-35.97.85-59.39-5.86-59.39-35.8 0-24.72 22.59-30.41 35.13-30.69 10.88.28 38.15-.51 60.23-5.97 27.6-6.82 55.2-33.24 60.23-57.11 5.02-23.87 12.55-63.08-16.73-93.77-28.5-29.87-41.15-29.86-65.71-29.84h-4.27c-25 .03-46.8.05-63.86-27.28-14.05-22.5-1.4-45.18 6.7-53.7 35.12-26.43 63.56-11.93 79.46 1.7 12.71 10.92 12.54 34.1 10.87 44.33 21.42 0 42.38 14.78 50.2 22.17 2.22-1.42 6.35-12.79 5.01-46.89-1.34-34.1-17.84-56.83-25.93-63.93 20.07-9.55 24.54-26.71 24.26-34.1.28-2.56.67-9.55 0-17.05s-4.19-14.49-5.86-17.05h-47.68c11.38 24.55-6.97 31.26-17.56 31.54H51.87v45.18h15.05a401.98 401.98 0 0 0-11.7 22.17c-11.72 38.36-12.55 75.86 15.89 119.34 28.44 43.47 86.16 38.36 92.85 37.51 6.69-.86 33.46.85 32.62 28.13-.67 21.82-17 27.84-25.1 28.13h-55.2c-53.54 8.52-65.25 35.8-67.76 74.16-2 30.69 20.91 53.7 32.62 61.38H54.38V1715Zm17.56-699.01h179.01V949.5h-179c6.4 2.56 19.07 12.79 18.4 33.25-.67 20.46-12.55 30.69-18.4 33.24Zm0-33.44c0-20.72-15.72-37.51-35.1-37.51-19.4 0-35.12 16.8-35.12 37.51 0 20.72 15.72 37.52 35.11 37.52 19.4 0 35.11-16.8 35.11-37.52ZM1.72 44.27v64.7c43.47-.28 139.78-.85 177.23-.85 37.45 0 54.61-10.21 58.52-15.32C264.88 69.64 257.8 21.28 250.84 0h-47.65c12.04 37.46-8.92 45.12-20.9 44.27H1.72Zm180.87 127.51H52.37v45.2H65.8c-6.44 9.94-19.32 38.2-19.32 71.61 0 41.78 29.4 86.97 61.33 98.9 31.92 11.94 74.77 13.65 108.38-11.93 33.6-25.58 41.16-54.57 43.68-94.64 2.02-32.06-17.08-62.24-26.88-73.33 18.48-8.52 24.36-25.57 24.36-42.63 0-13.64-3.92-22.16-5.88-24.72H203.6c10.75 25.92-9.53 31.83-21 31.54Zm63.85 576.38c-10.08 15.69-37.24 24.72-49.57 27.28 6.72 9.55 7.28 27.28 6.72 34.96-6.72 38.74-47.04 39.22-56.28 38.37-9.25-.86-47.9-6.82-46.21-50.3 1.34-34.8 30.8-44.63 45.37-45.2h30.24c12.1 0 25.76-3.4 31.08-5.11 23.53-8.53 69.74-57.13 51.25-115.96-14.78-47.06-58.8-64.52-78.97-67.36h-33.6c-17.65 0-45.37-6.82-45.37-34.95 0-22.51 21.28-29.85 31.92-30.7h119.3v-65.65c-34.16-.29-108.54-.68-132.74 0-30.24.85-69.73 18.76-72.25 67.36-2.02 38.88 21.56 61.1 33.6 67.35H54.05v63.95h103.34c12.6-.85 39.48 0 39.48 27.28 0 21.83-17.36 28.42-26.04 29h-20.16c-27.56.67-49.57 11.65-57.13 17.05-39.49 33.25-46.21 67.35-45.37 108.28.84 40.92 33.6 95.5 99.14 98.9 52.42 2.73 82.89-28.42 91.57-44.33 33.6-48.43 19.04-100.33 7.56-120.22Zm-94.13-512.34c42.41-.68 52.46 31.57 52.18 47.78 0 1.33 0 46.93-52.18 47.78-41.74.68-51.06-30.43-50.5-46.07-.67-38.9 33.39-49.2 50.5-49.49Z" fill="#BABABA" opacity=".3"/></svg>