<svg width="231" height="513" fill="none" xmlns="http://www.w3.org/2000/svg"><g opacity=".2"><path fill-rule="evenodd" clip-rule="evenodd" d="M0 3.27V94h30.03V52.1c-.39-16.54 2.65-27.3 16.17-27.3 11.16 0 13.73 10.38 13.86 16.14-.13 5 .23 17.53 2.7 27.68C65.83 81.31 77.77 94 88.55 96.3c10.78 2.3 28.49 5.77 42.35-7.69 13.49-13.1 13.48-18.9 13.48-30.2v-1.96c-.02-11.49-.03-21.5 12.31-29.35 10.17-6.45 20.41-.64 24.26 3.08 11.94 16.15 5.39 29.22-.77 36.52-4.93 5.84-15.4 5.77-20.02 5 0 9.84-6.67 19.48-10.01 23.06.64 1.03 5.78 2.93 21.17 2.31 15.4-.61 25.67-8.2 28.88-11.92 4.31 9.23 12.06 11.28 15.4 11.15 1.16.13 4.31.31 7.7 0 3.39-.3 6.54-1.92 7.7-2.69V71.7c-11.09 5.23-14.12-3.2-14.25-8.07V2.12h-20.4v6.92a181.15 181.15 0 0 0-10.01-5.39c-17.33-5.38-34.27-5.76-53.9 7.3-19.63 13.08-17.33 39.6-16.94 42.68.39 3.08-.39 15.38-12.7 15-9.86-.31-12.58-7.82-12.71-11.54V31.72C86.24 7.12 73.92 1.73 56.59.58c-13.86-.92-24.25 9.61-27.72 15V3.26H0ZM14.63 131.8v24.22H0v22.3h15.02v39.2c0 11.08 3.33 18.2 5 20.38 8.93 15.07 32.98 12.18 43.89 8.84v-21.52l-3.46 1.15c-12.32 2.46-16.17-5.64-16.56-10v-38.05h21.56v-22.3H43.89V131.8H14.63Zm66.6 32.68v82.27h30.03v-82.27c-1.15 2.94-5.77 8.76-15.01 8.45-9.24-.3-13.86-5.76-15.01-8.45ZM63 343.3c1.15 5.67 5.23 18.15 12.32 22.78-8.99 5.28-32.43 11.97-54.3-3.47-7.19-4-21.25-18-20.02-42.09 1.54-30.11 26.18-45.17 44.67-45.56 18.48-.38 33.88 2.7 48.9 20.85 2.44 3.48 7.4 13.6 7.7 26.26v9.26c.26 4 3.24 11.97 13.1 11.97 12.32 0 12.7-12.35 12.32-18.14v-47.5h28.88v12.36c2.82-5.53 12.86-16.37 30.42-15.44 21.95 1.15 30.04 19.3 30.42 33.2.31 11.12.13 45.3 0 61h-29.65v-54.82c-.38-4.9-3.7-14.67-13.86-14.67-12.7 0-15.79 12.74-15.79 20.85v15.44c-1.28 9.27-9.16 29.5-30.42 36.3-26.57 8.49-48.52-12.75-52.37-23.56-.77-2.44-2.31-8.72-2.31-14.28v-13.9c-.26-6.7-4.7-20.24-20.41-20.85-19.64-.78-22.34 16.99-22.72 21.23-.39 4.25-.17 22.78 17.33 25.87 3.46.26 11.47 0 15.79-3.09Zm41.22 74v59.84c-.13 5.28 2.54 14.6 14.25 9.65v22.01c-1.16.9-5 2.7-11.17 2.7-7.7 0-15.4-2.7-19.25-11.2-5.01 4.51-18.64 13.29-33.12 12.36-18.1-1.16-31.2-4.63-42.74-20.08-11.56-15.44-10.79-35.13-5.4-49.8 5.4-14.68 25.8-28.2 44.67-28.2 15.1 0 27.86 5.93 32.35 8.89v-6.18h20.41Zm8.72-274.3c0 8.9-7.6 16.13-16.95 16.13-9.36 0-16.94-7.22-16.94-16.13 0-8.92 7.58-16.14 16.94-16.14 9.36 0 16.94 7.22 16.94 16.14Zm17.48 252.59h29.22v82.98c-.38 5.51 3.08 15.14 20 9.6v21.9c-9.61 3.2-31.45 6.46-41.91-6.14-2.31-1.8-6.92-9.68-6.92-26.9 0-17.2-.26-61.47-.39-81.44Z" fill="#fff"/><path d="M74.78 464.25c.3 19.5-14.26 24.1-21.58 23.98-.6 0-21.2 0-21.58-23.98-.3-19.18 13.74-23.46 20.8-23.2 17.58-.32 22.23 15.33 22.36 23.2Z" fill="#CD2D3C"/></g></svg>