<svg width="1155" height="214" fill="none" xmlns="http://www.w3.org/2000/svg"><g filter="url(#a)" fill="#fff"><path d="M20 65.39v130.5h43.2v-60.27c-.56-23.78 3.8-39.26 23.25-39.26 16.06 0 19.75 14.93 19.94 23.22-.19 7.19.33 25.22 3.88 39.81 4.43 18.25 21.6 36.5 37.1 39.82 15.5 3.31 40.98 8.3 60.92-11.06 19.93-19.36 19.38-27.65 19.38-44.8 0-17.13-.56-32.06 17.72-43.68 14.62-9.29 29.35-.92 34.89 4.43 17.16 23.22 7.75 42.02-1.11 52.53-7.09 8.4-22.15 8.3-28.8 7.19 0 14.15-9.6 28.02-14.4 33.18.93 1.47 8.31 4.2 30.46 3.31 22.15-.88 36.92-11.8 41.54-17.14 6.2 13.27 17.35 16.22 22.15 16.04 1.66.18 6.2.44 11.07 0a26.67 26.67 0 0 0 11.08-3.87v-31.52c-15.95 7.52-20.3-4.61-20.5-11.61V63.73h-29.34v9.95a260.48 260.48 0 0 0-14.4-7.74c-24.92-7.74-49.29-8.3-77.53 10.5-28.24 18.81-24.92 56.97-24.37 61.39.56 4.42-.55 22.12-18.27 21.56-14.18-.44-18.1-11.24-18.28-16.58v-36.5c-5.53-35.4-23.25-43.13-48.17-44.8-19.94-1.32-34.9 13.83-39.88 21.57V65.4H20ZM378.3 30v34.84h-21.05V96.9h21.6v56.4c0 15.93 4.8 26.18 7.2 29.3 12.85 21.68 47.44 17.52 63.13 12.73v-30.97l-4.98 1.66c-17.72 3.54-23.26-8.11-23.82-14.38V96.91h31.01V64.84h-31V30h-42.1ZM517.3 195.34h-43.2V77c1.66 3.87 8.3 11.72 21.6 12.17 13.29.44 19.93-7.93 21.6-12.17v118.34Z"/><ellipse cx="495.82" cy="53.79" rx="24.37" ry="23.21"/><path d="M1105.37 30.58h-42.04c.19 28.74.56 92.4.56 117.16 0 24.75 6.63 36.1 9.95 38.68 15.05 18.13 46.46 13.45 60.29 8.84v-31.5c-24.34 7.96-29.32-5.9-28.76-13.81V30.58Z"/><path fill-rule="evenodd" clip-rule="evenodd" d="M1022.53 64.06v86.09c-.19 7.59 3.66 20.99 20.49 13.88v31.66c-1.66 1.3-7.2 3.88-16.06 3.88-11.08 0-22.16-3.88-27.7-16.1-7.2 6.48-26.8 19.1-47.63 17.77-26.03-1.67-44.87-6.66-61.48-28.88-16.62-22.22-15.51-50.54-7.76-71.64 7.76-21.1 37.12-40.55 64.26-40.55 21.7 0 40.06 8.52 46.52 12.78v-8.89h29.36ZM630.37 159.6c1.66 8.14 7.53 26.1 17.73 32.76-12.93 7.6-46.64 17.22-78.1-5-10.34-5.73-30.58-25.88-28.8-60.53 2.21-43.32 37.66-64.98 64.25-65.53 26.58-.56 48.74 3.88 70.34 29.99 3.5 5 10.64 19.55 11.08 37.76v13.33c.37 5.74 4.65 17.22 18.83 17.22 17.73 0 18.28-17.78 17.73-26.1V65.16h41.54v17.77c4.06-7.96 18.5-23.54 43.76-22.21 31.57 1.67 43.2 27.77 43.75 47.76.45 16 .19 65.17 0 87.75h-42.65v-78.86c-.55-7.04-5.31-21.1-19.94-21.1-18.27 0-22.7 18.32-22.7 29.98v22.22c-1.85 13.33-13.19 42.43-43.76 52.2-38.22 12.22-69.8-18.32-75.33-33.87-1.11-3.52-3.33-12.56-3.33-20.55v-20c-.37-9.62-6.75-29.1-29.35-29.99-28.25-1.1-32.13 24.44-32.68 30.55-.56 6.1-.24 32.77 24.92 37.21 4.99.37 16.5 0 22.71-4.44Zm319.52 5.03c10.53.19 31.48-6.45 31.04-34.5-.19-11.3-6.88-33.82-32.15-33.37-10.16-.37-30.37 5.78-29.93 33.38.56 34.49 30.17 34.49 31.04 34.49Z"/></g><defs><filter id="a" x="0" y="0" width="1154.13" height="213.5" filterUnits="userSpaceOnUse" color-interpolation-filters="sRGB"><feFlood flood-opacity="0" result="BackgroundImageFix"/><feColorMatrix in="SourceAlpha" values="0 0 0 0 0 0 0 0 0 0 0 0 0 0 0 0 0 0 127 0" result="hardAlpha"/><feOffset dy="-10"/><feGaussianBlur stdDeviation="10"/><feComposite in2="hardAlpha" operator="out"/><feColorMatrix values="0 0 0 0 0 0 0 0 0 0 0 0 0 0 0 0 0 0 0.15 0"/><feBlend in2="BackgroundImageFix" result="effect1_dropShadow_111_312"/><feBlend in="SourceGraphic" in2="effect1_dropShadow_111_312" result="shape"/></filter></defs></svg>