<svg width="2289" height="214" fill="none" xmlns="http://www.w3.org/2000/svg"><g filter="url(#a)"><path fill-rule="evenodd" clip-rule="evenodd" d="M378.3 30v34.84h-21.05V96.9h21.6v56.4c0 15.93 4.8 26.18 7.2 29.3 12.85 21.68 47.44 17.52 63.13 12.73v-30.97l-4.98 1.66c-17.72 3.54-23.26-8.11-23.82-14.38V96.91h31.01V64.84h-31V30h-42.1ZM20 65.39v130.5h43.2v-60.27c-.56-23.78 3.8-39.26 23.25-39.26 16.06 0 19.75 14.93 19.94 23.22-.19 7.19.33 25.22 3.88 39.81 4.43 18.25 21.6 36.5 37.1 39.82 15.5 3.31 40.98 8.3 60.92-11.06 19.4-18.84 19.4-27.2 19.38-43.44V141.89c-.02-16.53-.03-30.94 17.72-42.22 14.62-9.29 29.35-.92 34.89 4.43 17.16 23.22 7.75 42.02-1.11 52.53-7.09 8.4-22.15 8.3-28.8 7.19 0 14.15-9.6 28.02-14.4 33.18.93 1.47 8.31 4.2 30.46 3.31 22.15-.88 36.92-11.8 41.54-17.14 6.2 13.27 17.35 16.22 22.15 16.04 1.66.18 6.2.44 11.07 0a26.67 26.67 0 0 0 11.08-3.87v-31.52c-15.95 7.52-20.3-4.61-20.5-11.61V63.73h-29.34v9.95a260.48 260.48 0 0 0-14.4-7.74c-24.92-7.74-49.29-8.3-77.53 10.5-28.24 18.81-24.92 56.97-24.37 61.39.56 4.42-.55 22.12-18.27 21.56-14.18-.44-18.1-11.24-18.28-16.58v-36.5c-5.53-35.4-23.25-43.13-48.17-44.8-19.94-1.32-34.9 13.83-39.88 21.57V65.4H20ZM474.1 77v118.34h43.2V77c-1.67 4.24-8.31 12.61-21.6 12.17-13.3-.45-19.94-8.3-21.6-12.17Zm21.72 0c13.47 0 24.38-10.39 24.38-23.2 0-12.83-10.92-23.22-24.38-23.22-13.45 0-24.37 10.4-24.37 23.21 0 12.82 10.92 23.21 24.38 23.21Zm526.71-12.94v86.09c-.18 7.59 3.66 20.99 20.49 13.88v31.66c-1.66 1.3-7.2 3.88-16.06 3.88-11.08 0-22.15-3.88-27.7-16.1-7.2 6.48-26.8 19.1-47.63 17.77-26.03-1.67-44.86-6.66-61.48-28.88-16.62-22.22-15.51-50.54-7.75-71.64 7.75-21.1 37.1-40.55 64.25-40.55 21.7 0 40.06 8.52 46.52 12.78v-8.89h29.36ZM630.37 159.6c1.66 8.14 7.54 26.1 17.73 32.76-12.93 7.6-46.64 17.22-78.1-5-10.34-5.73-30.58-25.88-28.8-60.53 2.21-43.32 37.66-64.98 64.25-65.54 26.58-.55 48.74 3.9 70.34 30 3.51 5 10.64 19.55 11.08 37.76v13.33c.37 5.74 4.65 17.22 18.83 17.22 17.73 0 18.28-17.78 17.73-26.1V65.16h41.54v17.77c4.06-7.96 18.5-23.54 43.76-22.21 31.57 1.67 43.2 27.77 43.75 47.76.45 16 .19 65.17 0 87.75h-42.65v-78.86c-.55-7.04-5.31-21.1-19.94-21.1-18.27 0-22.7 18.32-22.7 29.98v22.22c-1.85 13.33-13.19 42.43-43.76 52.2-38.22 12.22-69.8-18.32-75.33-33.87-1.11-3.52-3.33-12.56-3.33-20.55v-20c-.37-9.62-6.75-29.1-29.35-29.99-28.25-1.1-32.13 24.44-32.68 30.55-.56 6.1-.24 32.77 24.92 37.21 4.99.37 16.5 0 22.71-4.44Zm319.52 5.03c10.53.19 31.48-6.45 31.04-34.5-.19-11.3-6.88-33.82-32.15-33.37-10.16-.37-30.37 5.78-29.93 33.38.56 34.49 30.18 34.49 31.04 34.49Zm113.44-134.04h42.04v119.37c-.56 7.92 4.42 21.77 28.76 13.81v31.5c-13.83 4.6-45.24 9.29-60.29-8.84-3.32-2.58-9.95-13.92-9.95-38.68 0-24.76-.37-88.42-.56-117.16Z" fill="#fff"/></g><g filter="url(#b)" fill="#fff"><path d="M2239.37 30.58h-42.04c.19 28.74.56 92.4.56 117.16 0 24.75 6.63 36.1 9.95 38.68 15.05 18.13 46.46 13.45 60.29 8.84v-31.5c-24.34 7.96-29.32-5.9-28.76-13.81V30.58Z"/><path fill-rule="evenodd" clip-rule="evenodd" d="M1512.3 64.84V30h42.08v34.84h31.02V96.9h-31.02v54.74c.56 6.27 6.1 17.92 23.82 14.38l4.98-1.66v30.97c-15.69 4.79-50.28 8.95-63.13-12.72-2.4-3.13-7.2-13.38-7.2-29.3V96.9h-21.6V64.84h21.05ZM1154 195.89V65.39h41.53v17.7c4.99-7.75 19.94-22.9 39.88-21.57 24.92 1.66 42.64 9.4 48.17 44.79v36.5c.19 5.34 4.1 16.14 18.28 16.58 17.72.56 18.83-17.14 18.27-21.56-.55-4.43-3.87-42.58 24.37-61.38 28.24-18.8 52.61-18.25 77.53-10.5 2.95 1.47 9.97 5.08 14.4 7.73v-9.95h29.35v88.48c.18 7 4.54 19.13 20.49 11.6v31.53a26.64 26.64 0 0 1-11.08 3.87 62.1 62.1 0 0 1-11.07 0c-4.8.18-15.95-2.77-22.15-16.04-4.62 5.35-19.39 16.26-41.54 17.14-22.15.89-29.53-1.84-30.46-3.31 4.8-5.16 14.4-19.03 14.4-33.18 6.65 1.1 21.71 1.21 28.8-7.2 8.86-10.5 18.27-29.3 1.11-52.52-5.54-5.35-20.27-13.72-34.89-4.43-17.75 11.28-17.74 25.7-17.72 42.22v2.82c.01 16.24.02 24.6-19.38 43.44-19.94 19.35-45.41 14.38-60.92 11.06-15.51-3.32-32.67-21.57-37.1-39.82-3.55-14.6-4.06-32.62-3.88-39.81-.18-8.3-3.88-23.22-19.94-23.22-19.45 0-23.81 15.48-23.26 39.26v60.27H1154Zm454.1-.55V77c1.66 3.87 8.31 11.72 21.6 12.17 13.29.44 19.93-7.93 21.6-12.17v118.34h-43.2Zm46.1-141.55c0 12.82-10.91 23.21-24.37 23.21s-24.38-10.39-24.38-23.2c0-12.83 10.92-23.22 24.38-23.22 13.46 0 24.37 10.4 24.37 23.21Zm502.33 96.36V64.06h-29.36v8.89c-6.46-4.26-24.81-12.78-46.52-12.78-27.14 0-56.5 19.44-64.26 40.55-7.75 21.1-8.86 49.43 7.76 71.64 16.62 22.22 35.45 27.21 61.48 28.88 20.83 1.33 40.44-11.3 47.64-17.77 5.54 12.22 16.61 16.1 27.69 16.1 8.86 0 14.4-2.59 16.06-3.88v-31.66c-16.83 7.1-20.67-6.3-20.49-13.88Zm-374.43 42.2c-10.19-6.66-16.07-24.62-17.73-32.76-6.2 4.44-17.72 4.81-22.71 4.44-25.16-4.44-25.48-31.1-24.92-37.21.55-6.11 4.43-31.66 32.68-30.55 22.6.9 28.98 20.37 29.35 30v19.99c0 8 2.22 17.03 3.33 20.55 5.54 15.55 37.11 46.1 75.33 33.88 30.57-9.78 41.91-38.88 43.75-52.21v-22.22c0-11.66 4.44-29.99 22.71-29.99 14.63 0 19.39 14.07 19.94 21.1v78.87h42.65c.19-22.58.45-71.75 0-87.75-.55-20-12.18-46.1-43.75-47.76-25.26-1.33-39.7 14.25-43.76 22.21V65.17h-41.54v68.31c.55 8.34 0 26.1-17.73 26.1-14.18 0-18.46-11.47-18.83-17.21v-13.33c-.44-18.21-7.57-32.77-11.08-37.76-21.6-26.1-43.76-30.55-70.34-30-26.59.56-62.04 22.22-64.25 65.54-1.78 34.66 18.46 54.8 28.8 60.54 31.46 22.21 65.17 12.58 78.1 5Zm332.83-62.22c.44 28.04-20.51 34.68-31.04 34.49-.86 0-30.48 0-31.04-34.5-.44-27.59 19.77-33.74 29.93-33.37 25.28-.45 31.96 22.06 32.15 33.38Z"/></g><defs><filter id="a" x="0" y="0" width="1154.13" height="213.5" filterUnits="userSpaceOnUse" color-interpolation-filters="sRGB"><feFlood flood-opacity="0" result="BackgroundImageFix"/><feColorMatrix in="SourceAlpha" values="0 0 0 0 0 0 0 0 0 0 0 0 0 0 0 0 0 0 127 0" result="hardAlpha"/><feOffset dy="-10"/><feGaussianBlur stdDeviation="10"/><feComposite in2="hardAlpha" operator="out"/><feColorMatrix values="0 0 0 0 0 0 0 0 0 0 0 0 0 0 0 0 0 0 0.15 0"/><feBlend in2="BackgroundImageFix" result="effect1_dropShadow_306_5"/><feBlend in="SourceGraphic" in2="effect1_dropShadow_306_5" result="shape"/></filter><filter id="b" x="1134" y="0" width="1154.13" height="213.5" filterUnits="userSpaceOnUse" color-interpolation-filters="sRGB"><feFlood flood-opacity="0" result="BackgroundImageFix"/><feColorMatrix in="SourceAlpha" values="0 0 0 0 0 0 0 0 0 0 0 0 0 0 0 0 0 0 127 0" result="hardAlpha"/><feOffset dy="-10"/><feGaussianBlur stdDeviation="10"/><feComposite in2="hardAlpha" operator="out"/><feColorMatrix values="0 0 0 0 0 0 0 0 0 0 0 0 0 0 0 0 0 0 0.15 0"/><feBlend in2="BackgroundImageFix" result="effect1_dropShadow_306_5"/><feBlend in="SourceGraphic" in2="effect1_dropShadow_306_5" result="shape"/></filter></defs></svg>