<svg width="834" height="130" fill="none" xmlns="http://www.w3.org/2000/svg"><path fill-rule="evenodd" clip-rule="evenodd" d="M268.2 26.08V0h31.51v26.08h23.22v24H299.7v40.99c.42 4.69 4.56 13.4 17.83 10.76l3.73-1.24v23.18c-11.75 3.58-37.64 6.7-47.26-9.52-1.8-2.35-5.39-10.02-5.39-21.94V50.09h-16.16V26.08h15.75ZM0 124.18V26.49h31.1v13.25C34.81 33.94 46 22.6 60.93 23.59 79.59 24.84 92.86 30.63 97 57.12v27.32c.14 4 3.07 12.09 13.68 12.42 13.27.41 14.1-12.83 13.68-16.14-.41-3.31-2.9-31.88 18.24-45.95 21.14-14.07 39.38-13.66 58.04-7.86 2.21 1.1 7.46 3.8 10.78 5.8v-7.46h21.97v66.23c.14 5.24 3.4 14.32 15.34 8.7v23.59a19.96 19.96 0 0 1-8.3 2.9c-3.64.32-7.04.13-8.29 0-3.59.13-11.93-2.08-16.58-12.01-3.45 4-14.5 12.17-31.09 12.83-16.58.66-22.1-1.38-22.8-2.48 3.6-3.87 10.78-14.24 10.78-24.84 4.97.83 16.25.91 21.56-5.38 6.63-7.86 13.68-21.94.83-39.32-4.15-4-15.18-10.27-26.12-3.31-13.29 8.44-13.28 19.23-13.27 31.6v2.1c.02 12.17.02 18.42-14.5 32.53-14.93 14.48-34 10.76-45.6 8.27-11.61-2.48-24.46-16.14-27.78-29.8-2.65-10.93-3.04-24.42-2.9-29.8-.14-6.21-2.9-17.39-14.92-17.39-14.57 0-17.83 11.6-17.42 29.4v45.11H0Zm339.93-.41V35.18c1.24 2.9 6.21 8.78 16.16 9.11 9.95.33 14.93-5.93 16.17-9.1v88.58h-32.33Zm34.5-105.96c0 9.6-8.17 17.37-18.24 17.37-10.08 0-18.25-7.77-18.25-17.37 0-9.6 8.17-17.38 18.25-17.38 10.07 0 18.24 7.78 18.24 17.38ZM781.01.43h31.46V89.8c-.41 5.93 3.31 16.3 21.53 10.34v23.58c-10.35 3.45-33.87 6.95-45.13-6.62-2.48-1.93-7.45-10.42-7.45-28.96 0-18.53-.28-66.18-.41-87.7ZM750.46 25.5v64.44c-.14 5.68 2.74 15.71 15.34 10.4v23.69c-1.24.97-5.39 2.9-12.02 2.9-8.3 0-16.59-2.9-20.73-12.05-5.4 4.85-20.07 14.3-35.66 13.3-19.49-1.24-33.59-4.98-46.02-21.61-12.44-16.63-11.61-37.84-5.8-53.63 5.8-15.8 27.77-30.35 48.09-30.35 16.25 0 29.99 6.37 34.83 9.56V25.5h21.97ZM456.91 97c1.24 6.1 5.63 19.54 13.26 24.53-9.67 5.69-34.9 12.9-58.46-3.74-7.74-4.3-22.89-19.37-21.56-45.31 1.66-32.43 28.2-48.65 48.1-49.06 19.9-.42 36.49 2.9 52.65 22.45 2.63 3.74 7.97 14.63 8.3 28.27v9.98c.27 4.3 3.48 12.88 14.1 12.88 13.26 0 13.68-13.3 13.26-19.54V26.33h31.1v13.3c3.04-5.96 13.85-17.62 32.76-16.63 23.63 1.25 32.34 20.79 32.75 35.76.33 11.97.14 48.78 0 65.68h-31.92V65.41c-.42-5.27-3.99-15.8-14.93-15.8-13.68 0-17 13.72-17 22.45v16.63c-1.38 9.98-9.87 31.76-32.76 39.08-28.6 9.15-52.24-13.72-56.39-25.36-.82-2.63-2.48-9.4-2.48-15.38V72.06c-.28-7.2-5.06-21.78-21.98-22.45-21.14-.83-24.05 18.3-24.46 22.87-.42 4.57-.18 24.52 18.66 27.85 3.73.28 12.35 0 17-3.33Zm239.18 3.77c7.88.14 23.56-4.83 23.23-25.82-.14-8.47-5.15-25.32-24.06-24.99-7.61-.27-22.74 4.34-22.4 25 .4 25.81 22.58 25.81 23.23 25.81Z" fill="#CD2D3C"/></svg>