<svg width="48" height="48" fill="none" xmlns="http://www.w3.org/2000/svg"><path fill-rule="evenodd" clip-rule="evenodd" d="M24 48a24 24 0 1 0 0-48 24 24 0 0 0 0 48Zm-6.6-26.83-5.4 9.4c-1.78 2.71-1.25 7.22 2.54 9.48a6.86 6.86 0 0 0 5.57.84 6.66 6.66 0 0 0 3.97-3.43l5.4-9.4-2.6-1.5L21.45 36l-.02.03-.02.04a3.67 3.67 0 0 1-2.18 1.94c-.86.27-1.95.19-3.16-.53-2.3-1.37-2.44-3.96-1.55-5.3l.03-.04.02-.04L20 22.66l-2.6-1.5ZM36 16.39l-5.4 9.4-2.6-1.5 5.42-9.43.02-.05.03-.04c.9-1.33.74-3.92-1.55-5.3-1.2-.71-2.3-.79-3.16-.53-.87.27-1.67.93-2.18 1.95l-.02.03-.02.04-5.41 9.44-2.6-1.5 5.4-9.4a6.66 6.66 0 0 1 3.96-3.43 6.86 6.86 0 0 1 5.57.83c3.8 2.27 4.32 6.78 2.54 9.5ZM21.13 31.01l8.35-14.61-2.6-1.5-8.36 14.62 2.6 1.49Z" fill="#CD2D3C"/></svg>