<svg xmlns="http://www.w3.org/2000/svg" xmlns:xlink="http://www.w3.org/1999/xlink">
	<symbol id="arrow" viewBox="0 0 11 18" fill="none" xmlns="http://www.w3.org/2000/svg">
		<path
			fillRule="evenodd"
			clipRule="evenodd"
			d="M10.887 8.59338L2.13512 0.843587C1.96914 0.695627 1.75029 0.605713 1.51044 0.605713C0.991773 0.605713 0.57131 1.02618 0.57131 1.54484C0.57131 1.82678 0.695548 2.0797 0.892263 2.25184L8.09892 8.63337L0.867835 15.4163L0.867902 15.4164C0.685334 15.5877 0.571289 15.8312 0.571289 16.1013C0.571289 16.62 0.991752 17.0405 1.51042 17.0405C1.7639 17.0405 1.99392 16.94 2.16287 16.7768L10.887 8.59338Z"
			fill="currentColor"
		/>
	</symbol>
	<symbol id="burger" width="25" height="19" fill="none" xmlns="http://www.w3.org/2000/svg">
		<path fill="#FAFAFB" d="M0 0h25v3H0zM0 16h25v3H0zM0 8h25v3H0z"/>
	</symbol>
	<symbol id="close" viewBox="0 0 27 26" width="23" height="22" fill="none" xmlns="http://www.w3.org/2000/svg">
		<path d="m2.18 2 23 22m-23 0 23-22" stroke="currentColor" stroke-width="4"/>
	</symbol>
	<symbol id="preloader" viewBox="0 0 519 81" fill="none" xmlns="http://www.w3.org/2000/svg">
		<path fill-rule="evenodd" clip-rule="evenodd" d="M166.907 0V16.2282H157.104V31.1685H167.165V57.4428C167.165 64.8614 169.401 69.6354 170.519 71.0951C176.504 81.1927 192.618 79.2522 199.927 77.0197V62.5946L197.606 63.3674C189.351 65.016 186.771 59.5894 186.513 56.67V31.1685H200.959V16.2282H186.513V0H166.907ZM0 16.4858V77.2773H20.1217V49.1999C19.8638 38.1234 21.8944 30.9109 30.9565 30.9109C38.4377 30.9109 40.1575 37.8659 40.2435 41.7297C40.1575 45.0784 40.3982 53.4759 42.0492 60.2763C44.113 68.7769 52.1101 77.2773 59.3333 78.8228C66.5565 80.3684 78.4231 82.6867 87.7101 73.671C96.7494 64.8957 96.746 61.0012 96.7394 53.4362C96.7393 53.229 96.7391 53.019 96.7391 52.8062C96.7391 52.5771 96.7389 52.349 96.7386 52.1217C96.7315 44.4232 96.7252 37.7107 104.994 32.4565C111.805 28.1289 118.667 32.0271 121.246 34.5172C129.243 45.336 124.858 54.0941 120.73 58.9883C117.428 62.9037 110.412 62.8522 107.316 62.337C107.316 68.9313 102.844 75.3883 100.609 77.7925C101.039 78.4794 104.478 79.7502 114.797 79.338C125.116 78.9259 131.995 73.8428 134.145 71.3527C137.034 77.5349 142.228 78.9087 144.464 78.8228C145.238 78.9087 147.353 79.0289 149.623 78.8228C151.893 78.6168 154.009 77.5349 154.783 77.0197V62.337C147.353 65.8403 145.324 60.1904 145.238 56.9276V15.7131H131.565V20.3497C129.501 19.1133 126.234 17.4303 124.858 16.7434C113.249 13.1372 101.898 12.8796 88.742 21.6377C75.5855 30.3958 77.1333 48.1695 77.3913 50.2303C77.6492 52.291 77.1333 60.5339 68.8782 60.2763C62.2742 60.0702 60.4512 55.0386 60.3652 52.5486V36.8355V35.5476C57.7855 19.0618 49.5304 15.4555 37.9217 14.6827C28.6348 14.0645 21.6695 21.1225 19.3478 24.7288V16.4858H0ZM211.536 21.8952V77.0197H231.658V21.8952C230.884 23.8701 227.788 27.7683 221.597 27.5622C215.406 27.3562 212.31 23.6984 211.536 21.8952ZM221.656 21.8955C227.926 21.8955 233.009 17.0546 233.009 11.083C233.009 5.11143 227.926 0.270508 221.656 0.270508C215.386 0.270508 210.303 5.11143 210.303 11.083C210.303 17.0546 215.386 21.8955 221.656 21.8955ZM505.603 0.270508H486.022C486.108 13.657 486.279 43.3133 486.279 54.8463C486.279 66.3794 489.371 71.6653 490.917 72.8667C497.925 81.3105 512.559 79.1309 519 76.9856V62.3119C507.664 66.019 505.345 59.566 505.603 55.8761V0.270508ZM467.014 55.968V15.8672H453.339V20.0066C450.329 18.0231 441.779 14.0562 431.665 14.0562C419.022 14.0562 405.346 23.1112 401.734 32.9423C398.122 42.7735 397.606 55.968 405.346 66.3166C413.087 76.6652 421.86 78.9936 433.987 79.7698C443.689 80.3907 452.823 74.5092 456.177 71.4909C458.757 77.1826 463.918 78.9936 469.078 78.9936C473.207 78.9936 475.787 77.7863 476.561 77.1826V62.4359C468.717 65.7474 466.928 59.5037 467.014 55.968ZM292.59 75.6303C287.843 72.5257 285.107 64.1606 284.333 60.3661C281.444 62.4359 276.077 62.6083 273.754 62.4359C262.032 60.3661 261.885 47.9478 262.143 45.102C262.401 42.2561 264.208 30.3552 277.367 30.8726C287.894 31.2866 290.87 40.3588 291.042 44.8432V54.157C291.042 57.8825 292.074 62.0909 292.59 63.7294C295.17 70.9734 309.878 85.2028 327.681 79.511C341.924 74.9577 347.205 61.401 348.065 55.1918V44.8432C348.065 39.4102 350.129 30.8726 358.644 30.8726C365.456 30.8726 367.675 37.4267 367.933 40.7038V77.4413H387.801C387.887 66.9202 388.007 44.0153 387.801 36.5644C387.543 27.2506 382.124 15.091 367.417 14.3149C355.651 13.694 348.925 20.9552 347.033 24.6635V16.3846H327.681V48.2066C327.939 52.0873 327.681 60.3661 319.425 60.3661C312.819 60.3661 310.824 55.0194 310.652 52.346V46.1368C310.445 37.651 307.126 30.8726 305.491 28.5442C295.428 16.3846 285.107 14.3149 272.722 14.5736C260.337 14.8323 243.824 24.9222 242.792 45.102C241.966 61.2458 251.392 70.6285 256.209 73.3019C270.865 83.6505 286.57 79.1661 292.59 75.6303ZM447.634 46.6427C447.841 59.7044 438.081 62.797 433.176 62.7107C432.773 62.7107 418.976 62.7107 418.717 46.6427C418.511 33.7883 427.926 30.9203 432.659 31.093C444.433 30.8857 447.548 41.3731 447.634 46.6427Z" fill="white"/>
	</symbol>
	<symbol id="email" viewBox="0 0 47 47" fill="none" xmlns="http://www.w3.org/2000/svg">
		<circle cx="23.3027" cy="23.6108" r="22.3027" fill="#CD2D3C" stroke="white" stroke-width="2"/>
		<path d="M33.9405 13.4792H12.3264L23.049 22.1755L33.9405 13.4792Z" fill="white"/>
		<path d="M22.5424 24.4551L10.8066 15.1678V32.6448C10.8066 33.4554 11.4258 33.7143 11.7354 33.7424H34.6159C35.4264 33.6749 35.629 32.9826 35.629 32.6448V15.1678L23.7244 24.4551C23.1841 24.8604 22.7113 24.624 22.5424 24.4551Z" fill="white"/>
	</symbol>
	<symbol id="call" viewBox="0 0 47 48" fill="none" xmlns="http://www.w3.org/2000/svg">
		<circle cx="23.3027" cy="23.8742" r="22.3027" fill="#CD2D3C" stroke="white" stroke-width="2"/>
		<path d="M9.79398 12.1384C7.09222 14.9077 7.93652 19.0898 8.69639 20.8347C9.87841 24.1274 12.2424 28.4334 16.7172 32.4017C21.192 36.3699 25.0758 38.565 28.0309 38.6495C30.9859 38.7339 32.1679 38.1429 34.0254 36.4543C35.5114 35.1034 34.926 33.7525 34.4475 33.246C34.138 32.8801 32.9953 31.6587 30.9015 29.6999C28.2841 27.2514 26.089 29.1089 25.5824 29.4466C25.0758 29.7843 23.8938 30.2909 22.6273 29.9532C21.3609 29.6155 18.9124 27.3359 17.1394 25.1407C15.3664 22.9455 16.5484 20.8347 17.055 20.1593C17.5615 19.4839 18.4058 18.3863 18.0681 17.1198C17.7304 15.8534 16.3795 13.827 13.931 11.5474C11.9723 9.72371 10.3568 11.1815 9.79398 12.1384Z" fill="white"/>
		<path d="M27.6931 19.5683C26.4773 18.0823 24.3159 17.4857 23.3872 17.3731C23.0776 17.3731 22.4585 17.2043 22.4585 16.5288C22.4585 15.8534 23.1339 15.6845 23.4716 15.6845C24.9069 15.8534 27.5243 16.8665 29.1284 18.6396C30.7326 20.4126 31.3236 22.6922 31.4081 23.7898C31.4795 24.7185 31.0703 25.0562 30.7326 25.0562C30.3949 25.0562 29.8883 24.9718 29.7195 23.7898C29.442 21.8479 29.2129 21.4258 27.6931 19.5683Z" fill="white"/>
		<path d="M21.9521 11.5475C21.9521 12.1554 22.515 12.3073 22.7964 12.3073C25.4138 13.0672 27.6934 12.9828 31.2394 16.6133C34.0763 19.5177 34.7855 23.3958 34.7855 24.9718C34.8699 25.1407 34.7855 25.8161 35.5454 25.9006C36.1533 25.9681 36.3615 25.4784 36.3897 25.2251C36.4741 23.1988 35.7142 19.4839 32.337 15.3468C28.9598 11.2097 23.0497 10.7876 22.8809 10.7876C22.712 10.7876 21.9521 10.7876 21.9521 11.5475Z" fill="white"/>
	</symbol>
	<symbol id="location" viewBox="0 0 47 48" fill="none" xmlns="http://www.w3.org/2000/svg">
		<circle cx="23.3027" cy="23.8649" r="22.3027" fill="#CD2D3C" stroke="white" stroke-width="2"/>
		<path d="M15.2 23.1892L23.3052 40.1596L31.6638 22.5982C33.4875 17.5324 31.4105 13.8456 30.1441 12.6354C24.4704 7.09684 18.7742 10.1025 16.6353 12.2977C12.7177 16.2828 14.0461 21.2192 15.2 23.1892Z" fill="white"/>
		<circle cx="23.2181" cy="18.8834" r="4.13707" fill="#CD2D3C"/>
	</symbol>
	<symbol id="link" viewBox="0 0 48 48" fill="none" xmlns="http://www.w3.org/2000/svg">
		<path fill-rule="evenodd" clip-rule="evenodd" d="M24 48C37.2548 48 48 37.2548 48 24C48 10.7452 37.2548 0 24 0C10.7452 0 0 10.7452 0 24C0 37.2548 10.7452 48 24 48ZM17.3955 21.1665L12.0036 30.5627C10.2244 33.2807 10.7475 37.7857 14.5426 40.0533C16.3916 41.1581 18.3494 41.4187 20.1084 40.8861C21.8402 40.3616 23.2358 39.1114 24.0791 37.4557L29.4751 28.0525L26.8731 26.5593L21.4575 35.9968L21.4367 36.033L21.418 36.0703C20.9052 37.0914 20.1141 37.7498 19.2389 38.0148C18.3772 38.2758 17.2887 38.1994 16.0814 37.478C13.7858 36.1064 13.6359 33.5167 14.5274 32.1849L14.5562 32.1419L14.5819 32.0971L19.9976 22.6596L17.3955 21.1665ZM35.9964 16.3938L30.6045 25.7901L28.0024 24.2969L33.4181 14.8594L33.4438 14.8146L33.4726 14.7716C34.3641 13.4398 34.2142 10.8501 31.9186 9.47852C30.7113 8.75715 29.6228 8.68075 28.7611 8.94168C27.8859 9.2067 27.0948 9.8651 26.582 10.8863L26.5633 10.9236L26.5425 10.9598L21.1269 20.3972L18.5249 18.9041L23.9209 9.50084C24.7642 7.84508 26.1598 6.59488 27.8916 6.07044C29.6506 5.53779 31.6084 5.79844 33.4574 6.90321C37.2525 9.17087 37.7756 13.6759 35.9964 16.3938ZM21.1285 31.0051L29.4763 16.3964L26.8715 14.908L18.5237 29.5167L21.1285 31.0051Z" fill="#CD2D3C"/>
	</symbol>
</svg>
