<svg xmlns="http://www.w3.org/2000/svg" xmlns:xlink="http://www.w3.org/1999/xlink">
	<symbol id="burger" width="25" height="19" fill="none" xmlns="http://www.w3.org/2000/svg">
		<path fill="#FAFAFB" d="M0 0h25v3H0zM0 16h25v3H0zM0 8h25v3H0z"/>
	</symbol>
	<symbol id="redName" viewBox="0 0 834 130" fill="none" xmlns="http://www.w3.org/2000/svg">
		<path fill-rule="evenodd" clip-rule="evenodd" d="M268.2 26.08V0h31.51v26.08h23.22v24H299.7v40.99c.42 4.69 4.56 13.4 17.83 10.76l3.73-1.24v23.18c-11.75 3.58-37.64 6.7-47.26-9.52-1.8-2.35-5.39-10.02-5.39-21.94V50.09h-16.16V26.08h15.75ZM0 124.18V26.49h31.1v13.25C34.81 33.94 46 22.6 60.93 23.59 79.59 24.84 92.86 30.63 97 57.12v27.32c.14 4 3.07 12.09 13.68 12.42 13.27.41 14.1-12.83 13.68-16.14-.41-3.31-2.9-31.88 18.24-45.95 21.14-14.07 39.38-13.66 58.04-7.86 2.21 1.1 7.46 3.8 10.78 5.8v-7.46h21.97v66.23c.14 5.24 3.4 14.32 15.34 8.7v23.59a19.96 19.96 0 0 1-8.3 2.9c-3.64.32-7.04.13-8.29 0-3.59.13-11.93-2.08-16.58-12.01-3.45 4-14.5 12.17-31.09 12.83-16.58.66-22.1-1.38-22.8-2.48 3.6-3.87 10.78-14.24 10.78-24.84 4.97.83 16.25.91 21.56-5.38 6.63-7.86 13.68-21.94.83-39.32-4.15-4-15.18-10.27-26.12-3.31-13.29 8.44-13.28 19.23-13.27 31.6v2.1c.02 12.17.02 18.42-14.5 32.53-14.93 14.48-34 10.76-45.6 8.27-11.61-2.48-24.46-16.14-27.78-29.8-2.65-10.93-3.04-24.42-2.9-29.8-.14-6.21-2.9-17.39-14.92-17.39-14.57 0-17.83 11.6-17.42 29.4v45.11H0Zm339.93-.41V35.18c1.24 2.9 6.21 8.78 16.16 9.11 9.95.33 14.93-5.93 16.17-9.1v88.58h-32.33Zm34.5-105.96c0 9.6-8.17 17.37-18.24 17.37-10.08 0-18.25-7.77-18.25-17.37 0-9.6 8.17-17.38 18.25-17.38 10.07 0 18.24 7.78 18.24 17.38ZM781.01.43h31.46V89.8c-.41 5.93 3.31 16.3 21.53 10.34v23.58c-10.35 3.45-33.87 6.95-45.13-6.62-2.48-1.93-7.45-10.42-7.45-28.96 0-18.53-.28-66.18-.41-87.7ZM750.46 25.5v64.44c-.14 5.68 2.74 15.71 15.34 10.4v23.69c-1.24.97-5.39 2.9-12.02 2.9-8.3 0-16.59-2.9-20.73-12.05-5.4 4.85-20.07 14.3-35.66 13.3-19.49-1.24-33.59-4.98-46.02-21.61-12.44-16.63-11.61-37.84-5.8-53.63 5.8-15.8 27.77-30.35 48.09-30.35 16.25 0 29.99 6.37 34.83 9.56V25.5h21.97ZM456.91 97c1.24 6.1 5.63 19.54 13.26 24.53-9.67 5.69-34.9 12.9-58.46-3.74-7.74-4.3-22.89-19.37-21.56-45.31 1.66-32.43 28.2-48.65 48.1-49.06 19.9-.42 36.49 2.9 52.65 22.45 2.63 3.74 7.97 14.63 8.3 28.27v9.98c.27 4.3 3.48 12.88 14.1 12.88 13.26 0 13.68-13.3 13.26-19.54V26.33h31.1v13.3c3.04-5.96 13.85-17.62 32.76-16.63 23.63 1.25 32.34 20.79 32.75 35.76.33 11.97.14 48.78 0 65.68h-31.92V65.41c-.42-5.27-3.99-15.8-14.93-15.8-13.68 0-17 13.72-17 22.45v16.63c-1.38 9.98-9.87 31.76-32.76 39.08-28.6 9.15-52.24-13.72-56.39-25.36-.82-2.63-2.48-9.4-2.48-15.38V72.06c-.28-7.2-5.06-21.78-21.98-22.45-21.14-.83-24.05 18.3-24.46 22.87-.42 4.57-.18 24.52 18.66 27.85 3.73.28 12.35 0 17-3.33Zm239.18 3.77c7.88.14 23.56-4.83 23.23-25.82-.14-8.47-5.15-25.32-24.06-24.99-7.61-.27-22.74 4.34-22.4 25 .4 25.81 22.58 25.81 23.23 25.81Z" fill="#CD2D3C"/>
	</symbol>
	<symbol id="blogName" viewBox="0 0 264 1715" fill="none" xmlns="http://www.w3.org/2000/svg">
		<path fill-rule="evenodd" clip-rule="evenodd" d="M.84 1163.47h52.7v32.39h48.52v-33.25h85.32c24.09 0 39.6-7.38 44.33-11.08 32.8-19.77 26.5-73.02 19.24-97.18h-46.84l2.5 7.68c5.36 27.27-12.26 35.8-21.74 36.65h-82.81v-47.74H53.54v47.74H.84v64.79ZM54.38 1715h197.4v-66.49h-91.17c-35.97.85-59.39-5.86-59.39-35.8 0-24.72 22.59-30.41 35.13-30.69 10.88.28 38.15-.51 60.23-5.97 27.6-6.82 55.2-33.24 60.23-57.11 5.02-23.87 12.55-63.08-16.73-93.77-28.5-29.87-41.15-29.86-65.71-29.84h-4.27c-25 .03-46.8.05-63.86-27.28-14.05-22.5-1.4-45.18 6.7-53.7 35.12-26.43 63.56-11.93 79.46 1.7 12.71 10.92 12.54 34.1 10.87 44.33 21.42 0 42.38 14.78 50.2 22.17 2.22-1.42 6.35-12.79 5.01-46.89-1.34-34.1-17.84-56.83-25.93-63.93 20.07-9.55 24.54-26.71 24.26-34.1.28-2.56.67-9.55 0-17.05s-4.19-14.49-5.86-17.05h-47.68c11.38 24.55-6.97 31.26-17.56 31.54H51.87v45.18h15.05a401.98 401.98 0 0 0-11.7 22.17c-11.72 38.36-12.55 75.86 15.89 119.34 28.44 43.47 86.16 38.36 92.85 37.51 6.69-.86 33.46.85 32.62 28.13-.67 21.82-17 27.84-25.1 28.13h-55.2c-53.54 8.52-65.25 35.8-67.76 74.16-2 30.69 20.91 53.7 32.62 61.38H54.38V1715Zm17.56-699.01h179.01V949.5h-179c6.4 2.56 19.07 12.79 18.4 33.25-.67 20.46-12.55 30.69-18.4 33.24Zm0-33.44c0-20.72-15.72-37.51-35.1-37.51-19.4 0-35.12 16.8-35.12 37.51 0 20.72 15.72 37.52 35.11 37.52 19.4 0 35.11-16.8 35.11-37.52ZM1.72 44.27v64.7c43.47-.28 139.78-.85 177.23-.85 37.45 0 54.61-10.21 58.52-15.32C264.88 69.64 257.8 21.28 250.84 0h-47.65c12.04 37.46-8.92 45.12-20.9 44.27H1.72Zm180.87 127.51H52.37v45.2H65.8c-6.44 9.94-19.32 38.2-19.32 71.61 0 41.78 29.4 86.97 61.33 98.9 31.92 11.94 74.77 13.65 108.38-11.93 33.6-25.58 41.16-54.57 43.68-94.64 2.02-32.06-17.08-62.24-26.88-73.33 18.48-8.52 24.36-25.57 24.36-42.63 0-13.64-3.92-22.16-5.88-24.72H203.6c10.75 25.92-9.53 31.83-21 31.54Zm63.85 576.38c-10.08 15.69-37.24 24.72-49.57 27.28 6.72 9.55 7.28 27.28 6.72 34.96-6.72 38.74-47.04 39.22-56.28 38.37-9.25-.86-47.9-6.82-46.21-50.3 1.34-34.8 30.8-44.63 45.37-45.2h30.24c12.1 0 25.76-3.4 31.08-5.11 23.53-8.53 69.74-57.13 51.25-115.96-14.78-47.06-58.8-64.52-78.97-67.36h-33.6c-17.65 0-45.37-6.82-45.37-34.95 0-22.51 21.28-29.85 31.92-30.7h119.3v-65.65c-34.16-.29-108.54-.68-132.74 0-30.24.85-69.73 18.76-72.25 67.36-2.02 38.88 21.56 61.1 33.6 67.35H54.05v63.95h103.34c12.6-.85 39.48 0 39.48 27.28 0 21.83-17.36 28.42-26.04 29h-20.16c-27.56.67-49.57 11.65-57.13 17.05-39.49 33.25-46.21 67.35-45.37 108.28.84 40.92 33.6 95.5 99.14 98.9 52.42 2.73 82.89-28.42 91.57-44.33 33.6-48.43 19.04-100.33 7.56-120.22Zm-94.13-512.34c42.41-.68 52.46 31.57 52.18 47.78 0 1.33 0 46.93-52.18 47.78-41.74.68-51.06-30.43-50.5-46.07-.67-38.9 33.39-49.2 50.5-49.49Z" fill="#BABABA" opacity=".3"/>
	</symbol>
	<symbol id="footerName" viewBox="0 0 231 513" fill="none" xmlns="http://www.w3.org/2000/svg">
		<g opacity=".2">
			<path fill-rule="evenodd" clip-rule="evenodd" d="M0 3.27V94h30.03V52.1c-.39-16.54 2.65-27.3 16.17-27.3 11.16 0 13.73 10.38 13.86 16.14-.13 5 .23 17.53 2.7 27.68C65.83 81.31 77.77 94 88.55 96.3c10.78 2.3 28.49 5.77 42.35-7.69 13.49-13.1 13.48-18.9 13.48-30.2v-1.96c-.02-11.49-.03-21.5 12.31-29.35 10.17-6.45 20.41-.64 24.26 3.08 11.94 16.15 5.39 29.22-.77 36.52-4.93 5.84-15.4 5.77-20.02 5 0 9.84-6.67 19.48-10.01 23.06.64 1.03 5.78 2.93 21.17 2.31 15.4-.61 25.67-8.2 28.88-11.92 4.31 9.23 12.06 11.28 15.4 11.15 1.16.13 4.31.31 7.7 0 3.39-.3 6.54-1.92 7.7-2.69V71.7c-11.09 5.23-14.12-3.2-14.25-8.07V2.12h-20.4v6.92a181.15 181.15 0 0 0-10.01-5.39c-17.33-5.38-34.27-5.76-53.9 7.3-19.63 13.08-17.33 39.6-16.94 42.68.39 3.08-.39 15.38-12.7 15-9.86-.31-12.58-7.82-12.71-11.54V31.72C86.24 7.12 73.92 1.73 56.59.58c-13.86-.92-24.25 9.61-27.72 15V3.26H0ZM14.63 131.8v24.22H0v22.3h15.02v39.2c0 11.08 3.33 18.2 5 20.38 8.93 15.07 32.98 12.18 43.89 8.84v-21.52l-3.46 1.15c-12.32 2.46-16.17-5.64-16.56-10v-38.05h21.56v-22.3H43.89V131.8H14.63Zm66.6 32.68v82.27h30.03v-82.27c-1.15 2.94-5.77 8.76-15.01 8.45-9.24-.3-13.86-5.76-15.01-8.45ZM63 343.3c1.15 5.67 5.23 18.15 12.32 22.78-8.99 5.28-32.43 11.97-54.3-3.47-7.19-4-21.25-18-20.02-42.09 1.54-30.11 26.18-45.17 44.67-45.56 18.48-.38 33.88 2.7 48.9 20.85 2.44 3.48 7.4 13.6 7.7 26.26v9.26c.26 4 3.24 11.97 13.1 11.97 12.32 0 12.7-12.35 12.32-18.14v-47.5h28.88v12.36c2.82-5.53 12.86-16.37 30.42-15.44 21.95 1.15 30.04 19.3 30.42 33.2.31 11.12.13 45.3 0 61h-29.65v-54.82c-.38-4.9-3.7-14.67-13.86-14.67-12.7 0-15.79 12.74-15.79 20.85v15.44c-1.28 9.27-9.16 29.5-30.42 36.3-26.57 8.49-48.52-12.75-52.37-23.56-.77-2.44-2.31-8.72-2.31-14.28v-13.9c-.26-6.7-4.7-20.24-20.41-20.85-19.64-.78-22.34 16.99-22.72 21.23-.39 4.25-.17 22.78 17.33 25.87 3.46.26 11.47 0 15.79-3.09Zm41.22 74v59.84c-.13 5.28 2.54 14.6 14.25 9.65v22.01c-1.16.9-5 2.7-11.17 2.7-7.7 0-15.4-2.7-19.25-11.2-5.01 4.51-18.64 13.29-33.12 12.36-18.1-1.16-31.2-4.63-42.74-20.08-11.56-15.44-10.79-35.13-5.4-49.8 5.4-14.68 25.8-28.2 44.67-28.2 15.1 0 27.86 5.93 32.35 8.89v-6.18h20.41Zm8.72-274.3c0 8.9-7.6 16.13-16.95 16.13-9.36 0-16.94-7.22-16.94-16.13 0-8.92 7.58-16.14 16.94-16.14 9.36 0 16.94 7.22 16.94 16.14Zm17.48 252.59h29.22v82.98c-.38 5.51 3.08 15.14 20 9.6v21.9c-9.61 3.2-31.45 6.46-41.91-6.14-2.31-1.8-6.92-9.68-6.92-26.9 0-17.2-.26-61.47-.39-81.44Z" fill="#fff"/>
			<path d="M74.78 464.25c.3 19.5-14.26 24.1-21.58 23.98-.6 0-21.2 0-21.58-23.98-.3-19.18 13.74-23.46 20.8-23.2 17.58-.32 22.23 15.33 22.36 23.2Z" fill="#CD2D3C"/>
		</g>
	</symbol>
</svg>
