<svg width="77" height="76" fill="none" xmlns="http://www.w3.org/2000/svg"><path d="M8.5 58.5V75M15 58.5V75M4.5 75H19m36.5-40h-44C8 35.17 1 37.4 1 45s7 9.5 10.5 9.5H41M24 9H10v20.5h14V9Zm0 0L11.5 1m31 8h-14v20.5h14V9Zm0 0L30 1m30.5 8h-14v20.5h14V9Zm0 0L48 1m13 63v11m0 0h-4m4 0h6.5m0-16.5V75m0 0h4M37 66l19.5-26.5c2.5-3.5 9.7-7.8 15.5-2 7.5 7.5-.5 15-3.5 17L43 72.5c-3 1.5-4.5 2-6.5 0-1.5-2-.7-4.5.5-6.5Z" stroke="#CD2D3C" stroke-width="2"/><circle cx="12" cy="45" r="3" stroke="#CD2D3C" stroke-width="2"/><circle cx="64" cy="45" r="3" stroke="#CD2D3C" stroke-width="2"/></svg>