<svg width="70" height="69" fill="none" xmlns="http://www.w3.org/2000/svg"><path d="M36.5 43.5c-1.2 2.4-.5 6 0 7.5l-5 4.5H12v6h22l6.5-7.5c4 2 7.67.5 9-1l4.5 4.5h15v-20H54l-6 3a8.17 8.17 0 0 0-11.5 3Zm0 0-3.5-3h-9.5m-.5-6h11l6.5 6m22 3V51M56 43.5V51M23.5 65 22 68H6l-2-3V50l5-7.5v-13l-3-2v-4l-5-5v-8l6-5V1h14v4.5l6 5v7M23 51v-1l-4.5-7.5v-13l3.5-2v-4l5-5v-1M9.5 30h8M2 17.5h25m7-16v4l6.5 8c1 3.83 1.1 11.6-6.5 12h-7.5" stroke="#CD2D3C" stroke-width="2"/><circle cx="44" cy="47" r="2" fill="#000"/><circle cx="7.5" cy="13.5" r="1.5" fill="#000"/><circle cx="14.5" cy="13.5" r="1.5" fill="#000"/><circle cx="20.5" cy="13.5" r="1.5" fill="#000"/></svg>