<svg width="87" height="71" fill="none" xmlns="http://www.w3.org/2000/svg"><path d="m20.27 40-4.38 4.5m30.38 25H5.77C.39 67.48.52 62.97 1.59 60m43.18 0H1.59m0 0c.2-.56.44-1.07.68-1.5l5.84-6m40.66 0h-5m-23.5 0H8.1m0 0 7.78-8m41.38 0h-13.5m-22.5 0h-5.38m48.88-8h-10m-11 0h11m18.5-8h-14m-18.5-1V19l3-6.5V1h7.5v11.5l3.5 6.5v17.5m-4.5 21L76.77 30c1.83-1.33 6-2.9 8 1.5.83 1.67 1.8 5.8-1 9L56.27 68c-2 .83-6.3 1.2-7.5-4-.15-1.5-.04-4.9 1.5-6.5Zm-26-5v-17l4-7v-11h7v11l4 7v17h-15Z" stroke="#CD2D3C" stroke-width="2"/></svg>