<svg width="87" height="77" fill="none" xmlns="http://www.w3.org/2000/svg"><path d="M18.5 49 5 62c-1.33 1-4 3.9-4 7.5C1 74 4 76 6 76h60a7.26 7.26 0 0 0 4.17-2.5M6 62h60c1.5 0 5.5 2 5.5 7.5 0 1.7-.55 3.02-1.33 4M45.5 49h6m0 0V38l4-8.5V17h9v12.5L69 38v16.5H51.5V49ZM74 49h6c2.5.67 6.9 3.5 4.5 9.5l-14.33 15M12 0c0 1.5-.6 5.2-3 8-3 3.5-3.5 10 1.5 10.5H21m4.75 15.25L28 29.5v-8l-.75-.75m-1.5 13L23.5 38v16.5h17V38l-1.75-4.25m-13 0h13m0 0L37 29.5v-8l.5-.75m-10.25 0L26.5 20v-4.5c-2 0-6-2.5-6-7s5-7.5 11-7.5 11.5 1.5 12 7c.4 4.4-3.5 6.83-5.5 7.5V20l-.5.75m-10.25 0H37.5" stroke="#CD2D3C" stroke-width="2"/><circle cx="8.5" cy="69" r="2" fill="#000"/><circle cx="64.5" cy="69" r="2" fill="#000"/><circle cx="27" cy="7.5" r="1.5" fill="#000"/><circle cx="32" cy="7.5" r="1.5" fill="#000"/><circle cx="37" cy="7.5" r="1.5" fill="#000"/></svg>