<svg width="78" height="65" fill="none" xmlns="http://www.w3.org/2000/svg"><path d="M42.45 52.72h7.05m-7.05 10.86h28.63c1.64 0 4.93-1.08 4.93-5.43 0-4.34-3.95-5.43-5.92-5.43H65m-35.87-2.96c-.99-1.64-4.34-4.93-9.87-4.93-4.74 0-8.88 3.29-10.36 4.93M28 37v-1l-1-1.5v-1.52H13.5v1.52l-1 1.5v.93m0 0h25.02v26.65H1V36.93h11.5Zm37 15.8H65m-15.5 0V37M65 52.72V37m-15.5 0v-1l1-1.5v-1.52H64v1.52l1 1.5v1m-15.5 0H65M13.61 1.74 7.51 8.5v7.4h5.93c0-1.48 1.18-4.44 5.92-4.44 3.55 0 4.93 2.96 5.18 4.44h5.18V8.5l-6.61-6.76h-9.5Zm5.65 17.76L17.51 24c-.33 1-.45 3 1.75 3s2.09-2 1.75-3l-1.75-4.5Z" stroke="#CD2D3C" stroke-width="2"/></svg>