<svg width="80" height="80" fill="none" xmlns="http://www.w3.org/2000/svg"><path d="M21 28h-5v-5.5l5-5m7 10h5V22l-4.5-4.5M15 1h19v5l-4 4c.83 2.83 1 8.5-5 8.5s-6.17-5.33-5.5-8l-4.5-4V1ZM51 28h-5v-5.5l5-5m7 10h5V22l-4.5-4.5M45 1h19v5l-4 4c.83 2.83 1 8.5-5 8.5s-6.17-5.33-5.5-8l-4.5-4V1Z" stroke="#CD2D3C" stroke-width="2"/><path d="M17.5 41.5c1.33-1.17 4-4.5 4-8.5v-9H28v9c0 1.67.9 5.7 4.5 8.5M47.5 41.5c1.33-1.17 4-4.5 4-8.5v-9H58v9c0 1.67.9 5.7 4.5 8.5M13 46.5V79h54V46.5M1 58l12-12h54l12 12.5" stroke="#CD2D3C" stroke-width="2"/><circle cx="25" cy="13" r="2" fill="#000"/><circle cx="55" cy="13" r="2" fill="#000"/><path stroke="#CD2D3C" stroke-width="2" d="M21 67h4v4h-4zM32 67h4v4h-4z"/></svg>