<svg width="76" height="81" fill="none" xmlns="http://www.w3.org/2000/svg"><path d="m32.53 31.5-2-2v-4.55m0 0c.73.3 1.43.47 2 .55h11c.3-.1.63-.24 1-.41m-14-.14c-2.32-.92-5-3-5-6.95 0-5.2 4-7.5 6-8V1h12v9c2 .83 6 3.6 6 8 0 3.75-2.9 6.07-5 7.09m-2 6.41 2-2v-4.41M5.53 61.5v-5.25m4-19.75V45l-4 6v5.25m11-19.75V45l4 6v.5m0 10v-10m-15 4.75c2 .25 6.3.15 7.5-2.25 1.5-3 6.5-3 7.5-2.5m-13.5 15h61.5c2 .33 6 2.1 6 6.5s-4.34 6.17-6.5 6.5h-61c-1.84 0-5.6-1.3-6-6.5-.4-5.2 3.83-6.5 6-6.5ZM30.03 61.5v-5.25m4-19.75V45l-4 6v5.25m11-19.75V45l4 6v.5m0 10v-10m-15 4.75c2 .25 6.3.15 7.5-2.25 1.5-3 6.5-3 7.5-2.5m-13.5-16h12M55.03 61.5v-5.25m4-19.75V45l-4 6v5.25m11-19.75V45l4 6v.5m0 10v-10m-15 4.75c2 .25 6.3.15 7.5-2.25 1.5-3 6.5-3 7.5-2.5m-13.5-16h12" stroke="#CD2D3C" stroke-width="2"/><circle cx="8.03" cy="73" r="2" fill="#000"/><circle cx="31.53" cy="17.5" r="1.5" fill="#000"/><circle cx="35.53" cy="17.5" r="1.5" fill="#000"/><circle cx="39.53" cy="17.5" r="1.5" fill="#000"/><circle cx="43.53" cy="17.5" r="1.5" fill="#000"/><circle cx="68.03" cy="73" r="2" fill="#000"/></svg>